<svg width="200" height="200" viewBox="0 0 200 200" fill="none" xmlns="http://www.w3.org/2000/svg">
<path d="M62.4168 97.6369C64.387 63.8627 89.0375 50.0246 101.116 47.3274C71.8454 74.3468 81.4148 106.901 89.8584 119.801C80.8519 117.55 72.7367 104.087 69.8049 97.6369C79.3743 137.885 119.763 127.307 138.761 116.987C135.102 141.755 112.14 161.316 101.116 168C87.3957 158.618 60.4466 131.411 62.4168 97.6369Z" fill="url(#paint0_linear_3_12)"/>
<path d="M107.449 46.6237L101.82 51.1973C118.144 50.353 134.891 52.7219 141.223 54.0118C138.69 67.2401 142.982 74.0653 145.445 75.8244H154.592C150.933 54.1526 156.117 42.4019 159.166 39.2356C151.567 64.2849 157.407 74.7689 161.277 76.8798L167.258 77.9353C169.791 59.9223 177.695 50.4937 181.33 48.031C170.776 62.8072 171.128 77.9353 172.535 79.3425C173.942 80.7498 178.868 81.4534 186.608 71.2508C194.347 61.0481 193.996 47.6792 191.181 46.2719C188.93 45.1461 182.503 58.4682 179.571 65.2699C181.26 54.2933 186.373 46.6237 188.718 44.161C182.245 37.9691 163.27 32.9029 154.592 31.1438C146.43 33.114 142.982 44.3956 142.279 49.7901C132.428 46.9755 114.955 46.5065 107.449 46.6237Z" fill="url(#paint1_linear_3_12)"/>
<path d="M58.195 49.4382C67.7644 46.9052 84.4639 46.741 91.6174 46.9755L83.5257 51.9009C74.8007 51.6195 63.7068 53.1909 59.2504 54.0118C61.7835 70.3361 56.0841 75.8244 52.9178 76.528H45.5296C51.1587 64.4256 45.2951 46.6237 41.6597 39.2356C48.1331 57.53 43.6533 71.7199 40.6042 76.528L33.5679 78.6389C30.7534 61.7518 22.7789 51.1973 19.1435 48.031C34.0605 76.4577 28.1734 81.4534 23.3653 80.398C6.82995 73.3617 4.01543 42.7538 9.64447 46.2719C14.1477 49.0864 18.5571 60.11 20.1989 65.2699C17.6659 49.7901 13.5144 44.5128 11.7554 43.8092C21.0198 39.0011 40.956 29.7366 46.5851 31.1439C52.2141 32.5511 56.6705 43.9265 58.195 49.4382Z" fill="url(#paint2_linear_3_12)"/>
<ellipse cx="101.468" cy="99.396" rx="9.85083" ry="14.7762" fill="url(#paint3_linear_3_12)"/>
<defs>
<linearGradient id="paint0_linear_3_12" x1="100.538" y1="47.3274" x2="100.538" y2="168" gradientUnits="userSpaceOnUse">
<stop stop-color="#DD62ED"/>
<stop offset="1" stop-color="#3300D3"/>
</linearGradient>
<linearGradient id="paint1_linear_3_12" x1="147.418" y1="31.1438" x2="147.418" y2="80.1445" gradientUnits="userSpaceOnUse">
<stop stop-color="#DD62ED"/>
<stop offset="1" stop-color="#3300D3"/>
</linearGradient>
<linearGradient id="paint2_linear_3_12" x1="49.3087" y1="31" x2="49.3087" y2="80.5263" gradientUnits="userSpaceOnUse">
<stop stop-color="#DD62ED"/>
<stop offset="1" stop-color="#3300D3"/>
</linearGradient>
<linearGradient id="paint3_linear_3_12" x1="101.468" y1="84.6198" x2="101.468" y2="114.172" gradientUnits="userSpaceOnUse">
<stop stop-color="#DD62ED"/>
<stop offset="1" stop-color="#3300D3"/>
</linearGradient>
</defs>
</svg>
